<?xml version="1.0" standalone="no"?>
<!DOCTYPE svg PUBLIC "-//W3C//DTD SVG 20010904//EN"
 "http://www.w3.org/TR/2001/REC-SVG-20010904/DTD/svg10.dtd">
<svg version="1.0" xmlns="http://www.w3.org/2000/svg"
 width="260.000000pt" height="260.000000pt" viewBox="0 0 260.000000 260.000000"
 preserveAspectRatio="xMidYMid meet">
<metadata>
Created by potrace 1.11, written by Peter Selinger 2001-2013
</metadata>
<g transform="translate(0.000000,260.000000) scale(0.100000,-0.100000)"
fill="#000000" stroke="none">
<path d="M1096 2515 c-510 -96 -903 -489 -1002 -1003 -25 -127 -23 -338 5
-470 50 -238 154 -439 318 -613 67 -71 201 -179 221 -179 10 0 12 158 11 697
0 478 3 713 10 747 24 102 66 146 140 146 92 0 120 -31 420 -464 117 -168 215
-306 219 -306 4 0 113 152 242 337 129 185 250 352 267 369 90 91 220 55 254
-68 7 -28 11 -243 12 -655 2 -439 5 -613 13 -613 14 0 86 92 148 187 88 137
150 307 181 496 12 73 6 292 -10 382 -46 261 -161 474 -359 670 -168 165 -345
265 -570 321 -129 33 -394 42 -520 19z"/>
<path d="M950 660 l0 -550 23 -14 c73 -48 408 -67 580 -33 133 27 329 100 349
131 10 15 10 1006 1 1006 -5 0 -49 -60 -100 -134 -51 -73 -111 -157 -135 -186
-24 -30 -59 -85 -78 -124 -40 -80 -82 -116 -137 -116 -84 0 -128 46 -363 388
-69 100 -128 181 -132 182 -5 0 -8 -247 -8 -550z"/>
</g>
</svg>
